<svg xmlns="http://www.w3.org/2000/svg" viewBox="0 0 100 100"><defs><mask id="x-mT-disc" maskUnits="userSpaceOnUse" x="-10" y="-10" width="120" height="120"><rect x="-10" y="-10" width="120" height="120" fill="#fff"/><path d="M82.99 25.32L83.02 26.06L83.04 26.79L83.05 27.51L83.05 28.23L83.02 28.96L82.94 29.69L82.81 30.44L82.63 31.19L82.41 31.95L82.16 32.71L81.91 33.47L81.65 34.22L81.42 34.97L81.19 35.73L80.97 36.49L80.72 37.26L80.44 38.04L80.10 38.83L79.67 39.63L79.16 40.43L78.56 41.23L77.89 42.01L77.15 42.79L76.36 43.55L75.54 44.30L74.70 45.04L73.86 45.78L73.00 46.51L72.11 47.22L71.20 47.93L70.25 48.62L69.29 49.29L68.29 49.94L67.28 50.58L66.25 51.20L65.19 51.80L64.12 52.38L63.03 52.93L61.93 53.47L60.82 53.98L59.70 54.46L58.56 54.92L57.42 55.36L56.27 55.77L55.12 56.15L53.97 56.51L52.82 56.83L51.67 57.13L50.52 57.40L49.37 57.69L48.22 57.94L47.08 58.15L45.95 58.31L44.85 58.41L43.77 58.45L42.73 58.45L41.71 58.40L40.72 58.33L39.75 58.23L38.80 58.12L37.87 57.98L36.96 57.82L36.08 57.64L35.22 57.43L34.40 57.19L33.61 56.92L32.85 56.63L32.09 56.33L31.33 56.03L30.54 55.75L29.71 55.49L28.84 55.24L27.95 55.00L27.05 54.73L26.19 54.42L25.41 54.05L24.76 53.58L24.29 53.02L24.02 52.36L23.95 51.61L24.06 50.80L24.31 49.94L24.66 49.08L25.04 48.23L25.40 47.41L25.70 46.62L25.92 45.88L26.07 45.16L26.17 44.45L26.24 43.75L26.33 43.04L26.45 42.32L26.63 41.58L26.85 40.84L27.11 40.09L27.37 39.33L27.62 38.56L27.84 37.77L28.02 36.97L28.19 36.14L28.37 35.28L28.61 34.40L28.98 33.51L29.51 32.63L30.24 31.77L31.18 30.98L32.31 30.26L33.59 29.62L34.96 29.08L36.37 28.61L37.76 28.19L39.07 27.79L40.28 27.38L41.39 26.93L42.41 26.42L43.36 25.84L44.28 25.22L45.20 24.56L46.15 23.89L47.13 23.23L48.15 22.60L49.21 22.01L50.30 21.45L51.42 20.92L52.55 20.38L53.71 19.84L54.89 19.29L56.10 18.72L57.34 18.17L58.60 17.66L59.86 17.25L61.11 16.96L62.31 16.83L63.42 16.88L64.43 17.10L65.33 17.46L66.13 17.93L66.85 18.44L67.52 18.94L68.19 19.38L68.91 19.73L69.69 19.96L70.56 20.09L71.52 20.13L72.54 20.13L73.60 20.11L74.67 20.12L75.69 20.19L76.66 20.32L77.55 20.54L78.37 20.82L79.13 21.16L79.84 21.53L80.52 21.94L81.17 22.36L81.79 22.82L82.37 23.30L82.88 23.84L83.28 24.42Z" fill="none" stroke="#000" stroke-width="3"/><path d="M82.55 63.15L82.87 63.93L83.01 64.72L82.93 65.48L82.64 66.22L82.17 66.92L81.58 67.59L80.91 68.23L80.23 68.84L79.54 69.45L78.86 70.04L78.16 70.62L77.42 71.17L76.62 71.69L75.76 72.17L74.84 72.61L73.92 73.03L73.04 73.45L72.25 73.93L71.57 74.47L71.00 75.10L70.51 75.83L70.03 76.61L69.50 77.40L68.84 78.15L68.02 78.79L67.01 79.27L65.83 79.56L64.53 79.69L63.15 79.67L61.75 79.56L60.38 79.42L59.06 79.28L57.79 79.17L56.56 79.11L55.36 79.07L54.17 79.03L52.99 78.97L51.81 78.87L50.64 78.74L49.48 78.60L48.33 78.49L47.16 78.44L45.96 78.48L44.70 78.60L43.38 78.79L41.98 78.98L40.56 79.12L39.14 79.14L37.78 79.00L36.55 78.66L35.46 78.14L34.54 77.48L33.76 76.72L33.08 75.93L32.45 75.15L31.81 74.44L31.12 73.78L30.37 73.19L29.56 72.64L28.74 72.10L27.93 71.56L27.15 70.99L26.41 70.41L25.70 69.81L24.97 69.21L24.21 68.62L23.38 68.03L22.47 67.44L21.53 66.84L20.59 66.21L19.75 65.54L19.08 64.82L18.64 64.07L18.46 63.29L18.53 62.50L18.80 61.72L19.20 60.95L19.64 60.22L20.06 59.50L20.40 58.80L20.64 58.10L20.79 57.40L20.89 56.70L20.99 55.98L21.11 55.27L21.29 54.56L21.54 53.86L21.85 53.17L22.20 52.48L22.59 51.80L23.00 51.13L23.44 50.45L23.93 49.78L24.48 49.14L25.12 48.52L25.85 47.94L26.67 47.42L27.58 46.94L28.54 46.51L29.53 46.10L30.54 45.72L31.55 45.34L32.55 44.97L33.55 44.60L34.56 44.23L35.59 43.88L36.65 43.56L37.75 43.29L38.88 43.05L40.02 42.83L41.17 42.65L42.34 42.49L43.53 42.36L44.72 42.25L45.93 42.18L47.14 42.14L48.36 42.12L49.58 42.13L50.80 42.17L52.03 42.25L53.25 42.35L54.46 42.47L55.68 42.63L56.88 42.82L58.07 43.03L59.26 43.27L60.43 43.54L61.58 43.83L62.72 44.15L63.84 44.50L64.94 44.87L66.01 45.27L67.07 45.69L68.09 46.14L69.10 46.60L70.09 47.08L71.05 47.58L71.99 48.10L72.90 48.63L73.80 49.18L74.67 49.75L75.51 50.33L76.31 50.94L77.05 51.57L77.70 52.23L78.25 52.93L78.67 53.65L78.98 54.40L79.19 55.15L79.34 55.90L79.49 56.63L79.68 57.35L79.95 58.05L80.30 58.75L80.73 59.45L81.19 60.16L81.63 60.89L82.01 61.63L82.29 62.38Z" fill="#000" stroke="#000" stroke-width="3"/><path d="M79.38 29.57L79.77 29.93L79.96 30.38L79.94 30.91L79.78 31.49L79.52 32.10L79.22 32.70L78.91 33.30L78.61 33.88L78.33 34.45L78.03 35.02L77.70 35.59L77.31 36.16L76.86 36.74L76.38 37.31L75.89 37.88L75.45 38.43L75.09 38.97L74.83 39.51L74.68 40.06L74.58 40.62L74.51 41.21L74.38 41.83L74.14 42.46L73.74 43.10L73.16 43.72L72.43 44.31L71.56 44.86L70.60 45.37L69.62 45.84L68.64 46.29L67.70 46.73L66.80 47.17L65.93 47.61L65.08 48.06L64.24 48.49L63.38 48.91L62.52 49.31L61.65 49.68L60.79 50.05L59.94 50.44L59.09 50.85L58.26 51.32L57.41 51.84L56.53 52.41L55.62 53.00L54.67 53.57L53.69 54.07L52.70 54.48L51.73 54.75L50.79 54.89L49.92 54.90L49.10 54.83L48.33 54.70L47.60 54.57L46.88 54.46L46.15 54.39L45.41 54.37L44.65 54.39L43.89 54.41L43.14 54.41L42.40 54.40L41.69 54.36L40.99 54.31L40.27 54.26L39.53 54.24L38.72 54.26L37.85 54.31L36.94 54.38L36.01 54.44L35.13 54.43L34.36 54.34L33.75 54.13L33.35 53.78L33.15 53.31L33.13 52.76L33.25 52.15L33.42 51.53L33.58 50.95L33.68 50.41L33.68 49.92L33.58 49.49L33.41 49.09L33.21 48.69L33.01 48.29L32.86 47.87L32.75 47.43L32.69 46.96L32.64 46.49L32.58 46.02L32.49 45.54L32.38 45.06L32.26 44.57L32.18 44.05L32.20 43.50L32.37 42.92L32.74 42.31L33.31 41.69L34.06 41.06L34.94 40.45L35.89 39.87L36.84 39.31L37.72 38.78L38.50 38.25L39.16 37.73L39.74 37.19L40.25 36.64L40.75 36.07L41.27 35.49L41.83 34.91L42.45 34.34L43.12 33.77L43.82 33.22L44.55 32.66L45.29 32.10L46.04 31.52L46.82 30.94L47.63 30.36L48.49 29.82L49.41 29.34L50.37 28.94L51.36 28.65L52.36 28.46L53.34 28.35L54.28 28.29L55.19 28.25L56.06 28.18L56.91 28.04L57.75 27.82L58.62 27.53L59.52 27.17L60.44 26.78L61.39 26.41L62.34 26.07L63.29 25.78L64.21 25.55L65.12 25.37L66.02 25.23L66.91 25.11L67.81 24.99L68.70 24.89L69.57 24.83L70.39 24.83L71.13 24.91L71.75 25.11L72.23 25.42L72.58 25.82L72.82 26.29L72.99 26.78L73.17 27.25L73.41 27.65L73.76 27.95L74.25 28.17L74.86 28.31L75.57 28.41L76.32 28.50L77.05 28.62L77.69 28.80L78.23 29.06L78.65 29.38Z" fill="#000"/><circle cx="53.84" cy="53.90" r="9.31" fill="#000"/></mask><mask id="x-mT-disc-lo" maskUnits="userSpaceOnUse" x="-10" y="-10" width="120" height="120"><rect x="-10" y="-10" width="120" height="120" fill="#fff"/><path d="M78.59 57.69L78.49 58.02L78.19 58.34L77.76 58.63L77.28 58.91L76.82 59.18L76.37 59.45L75.94 59.72L75.47 59.98L74.96 60.22L74.37 60.44L73.75 60.65L73.14 60.86L72.61 61.07L72.19 61.32L71.90 61.61L71.72 61.94L71.57 62.30L71.37 62.67L71.03 63.00L70.51 63.28L69.78 63.48L68.88 63.60L67.86 63.65L66.80 63.67L65.74 63.67L64.73 63.68L63.77 63.71L62.84 63.74L61.93 63.79L61.01 63.82L60.08 63.83L59.15 63.83L58.22 63.83L57.31 63.85L56.42 63.90L55.54 64.00L54.63 64.14L53.69 64.29L52.70 64.42L51.68 64.48L50.63 64.47L49.60 64.36L48.61 64.16L47.68 63.90L46.80 63.62L45.96 63.34L45.13 63.08L44.30 62.86L43.45 62.67L42.58 62.49L41.72 62.30L40.88 62.11L40.05 61.91L39.23 61.70L38.39 61.50L37.50 61.32L36.53 61.15L35.49 60.99L34.42 60.82L33.38 60.62L32.46 60.38L31.73 60.09L31.23 59.75L30.95 59.39L30.83 59.00L30.80 58.63L30.77 58.27L30.66 57.93L30.43 57.61L30.09 57.30L29.69 57.00L29.27 56.69L28.88 56.38L28.55 56.06L28.25 55.74L27.95 55.41L27.61 55.09L27.22 54.75L26.79 54.40L26.39 54.04L26.09 53.68L25.99 53.33L26.15 53.00L26.59 52.71L27.25 52.45L28.06 52.23L28.89 52.03L29.65 51.83L30.26 51.61L30.71 51.37L31.02 51.10L31.26 50.81L31.49 50.51L31.78 50.22L32.14 49.94L32.57 49.67L33.04 49.41L33.53 49.15L34.02 48.89L34.52 48.61L35.07 48.35L35.71 48.12L36.48 47.94L37.39 47.83L38.44 47.81L39.57 47.86L40.72 47.94L41.83 48.04L42.87 48.11L43.81 48.12L44.67 48.07L45.49 47.96L46.30 47.82L47.14 47.68L48.02 47.56L48.94 47.48L49.89 47.44L50.87 47.43L51.86 47.43L52.87 47.44L53.89 47.46L54.91 47.49L55.94 47.56L56.95 47.69L57.90 47.89L58.78 48.15L59.59 48.46L60.32 48.79L61.03 49.10L61.74 49.37L62.53 49.59L63.40 49.74L64.36 49.86L65.40 49.96L66.46 50.08L67.48 50.22L68.45 50.41L69.32 50.63L70.13 50.89L70.87 51.16L71.59 51.44L72.29 51.72L72.96 52.02L73.54 52.33L74.00 52.66L74.29 53.00L74.41 53.36L74.39 53.72L74.31 54.08L74.26 54.41L74.34 54.73L74.61 55.04L75.09 55.34L75.72 55.64L76.42 55.96L77.09 56.29L77.64 56.64L78.00 56.98L78.17 57.33Z" fill="#000"/><circle cx="53.84" cy="53.90" r="9.31" fill="#000"/></mask></defs><g fill="#0F4C4A"><g transform="translate(-1.5 1.5)"><circle cx="51.5" cy="50" r="42" mask="url(#x-mT-disc)"/><path d="M82.55 63.15L82.87 63.93L83.01 64.72L82.93 65.48L82.64 66.22L82.17 66.92L81.58 67.59L80.91 68.23L80.23 68.84L79.54 69.45L78.86 70.04L78.16 70.62L77.42 71.17L76.62 71.69L75.76 72.17L74.84 72.61L73.92 73.03L73.04 73.45L72.25 73.93L71.57 74.47L71.00 75.10L70.51 75.83L70.03 76.61L69.50 77.40L68.84 78.15L68.02 78.79L67.01 79.27L65.83 79.56L64.53 79.69L63.15 79.67L61.75 79.56L60.38 79.42L59.06 79.28L57.79 79.17L56.56 79.11L55.36 79.07L54.17 79.03L52.99 78.97L51.81 78.87L50.64 78.74L49.48 78.60L48.33 78.49L47.16 78.44L45.96 78.48L44.70 78.60L43.38 78.79L41.98 78.98L40.56 79.12L39.14 79.14L37.78 79.00L36.55 78.66L35.46 78.14L34.54 77.48L33.76 76.72L33.08 75.93L32.45 75.15L31.81 74.44L31.12 73.78L30.37 73.19L29.56 72.64L28.74 72.10L27.93 71.56L27.15 70.99L26.41 70.41L25.70 69.81L24.97 69.21L24.21 68.62L23.38 68.03L22.47 67.44L21.53 66.84L20.59 66.21L19.75 65.54L19.08 64.82L18.64 64.07L18.46 63.29L18.53 62.50L18.80 61.72L19.20 60.95L19.64 60.22L20.06 59.50L20.40 58.80L20.64 58.10L20.79 57.40L20.89 56.70L20.99 55.98L21.11 55.27L21.29 54.56L21.54 53.86L21.85 53.17L22.20 52.48L22.59 51.80L23.00 51.13L23.44 50.45L23.93 49.78L24.48 49.14L25.12 48.52L25.85 47.94L26.67 47.42L27.58 46.94L28.54 46.51L29.53 46.10L30.54 45.72L31.55 45.34L32.55 44.97L33.55 44.60L34.56 44.23L35.59 43.88L36.65 43.56L37.75 43.29L38.88 43.05L40.02 42.83L41.17 42.65L42.34 42.49L43.53 42.36L44.72 42.25L45.93 42.18L47.14 42.14L48.36 42.12L49.58 42.13L50.80 42.17L52.03 42.25L53.25 42.35L54.46 42.47L55.68 42.63L56.88 42.82L58.07 43.03L59.26 43.27L60.43 43.54L61.58 43.83L62.72 44.15L63.84 44.50L64.94 44.87L66.01 45.27L67.07 45.69L68.09 46.14L69.10 46.60L70.09 47.08L71.05 47.58L71.99 48.10L72.90 48.63L73.80 49.18L74.67 49.75L75.51 50.33L76.31 50.94L77.05 51.57L77.70 52.23L78.25 52.93L78.67 53.65L78.98 54.40L79.19 55.15L79.34 55.90L79.49 56.63L79.68 57.35L79.95 58.05L80.30 58.75L80.73 59.45L81.19 60.16L81.63 60.89L82.01 61.63L82.29 62.38Z" mask="url(#x-mT-disc-lo)"/><circle cx="53.84" cy="53.90" r="6.71" fill="#F2B84B"/></g></g></svg>